CrispyCond Thin-MaxGrade-shadow.ufo
<glyph name="period" format="2">
  <advance width="-94"/>
  <unicode hex="002E"/>
  <outline>
    <contour>
      <point x="-124" y="-128" type="line"/>
      <point x="-126" y="-135" type="line"/>
      <point x="-126" y="-152" type="line"/>
      <point x="-104" y="-152" type="line"/>
      <point x="47" y="-1" type="line"/>
      <point x="49" y="6" type="line"/>
      <point x="49" y="23" type="line"/>
      <point x="27" y="23" type="line"/>
    </contour>
    <contour>
      <point x="-122" y="-148" type="line"/>
      <point x="-122" y="-135" type="line"/>
      <point x="-120" y="-130" type="line"/>
      <point x="29" y="19" type="line"/>
      <point x="45" y="19" type="line"/>
      <point x="45" y="6" type="line"/>
      <point x="43" y="1" type="line"/>
      <point x="-106" y="-148" type="line"/>
    </contour>
  </outline>
</glyph>
<glyph name="one" format="2">
  <advance width="7"/>
  <unicode hex="0031"/>
  <outline>
    <contour>
      <point x="152" y="-1" type="line"/>
      <point x="152" y="17" type="line"/>
      <point x="100" y="17" type="line"/>
      <point x="100" y="1602" type="line"/>
      <point x="26" y="1602" type="line"/>
      <point x="-125" y="1451" type="line"/>
      <point x="-125" y="1433" type="line"/>
      <point x="-70" y="1433" type="line"/>
      <point x="-70" y="-82" type="line"/>
      <point x="-122" y="-134" type="line"/>
      <point x="-122" y="-152" type="line"/>
      <point x="1" y="-152" type="line"/>
    </contour>
    <contour>
      <point x="-66" y="-84" type="line"/>
      <point x="-66" y="1437" type="line"/>
      <point x="-121" y="1437" type="line"/>
      <point x="-121" y="1449" type="line"/>
      <point x="28" y="1598" type="line"/>
      <point x="96" y="1598" type="line"/>
      <point x="96" y="13" type="line"/>
      <point x="148" y="13" type="line"/>
      <point x="148" y="1" type="line"/>
      <point x="-1" y="-148" type="line"/>
      <point x="-118" y="-148" type="line"/>
      <point x="-118" y="-136" type="line"/>
    </contour>
  </outline>
</glyph>
<glyph name="six" format="2">
  <advance width="8"/>
  <unicode hex="0036"/>
  <outline>
    <contour>
      <point x="3" y="-152" type="line"/>
      <point x="154" y="-1" type="line"/>
      <point x="154" y="808" type="line"/>
      <point x="47" y="808" type="line"/>
      <point x="47" y="1047" type="line"/>
      <point x="154" y="1154" type="line"/>
      <point x="154" y="1602" type="line"/>
      <point x="67" y="1602" type="line"/>
      <point x="-84" y="1451" type="line"/>
      <point x="-123" y="1279" type="line"/>
      <point x="-123" y="-152" type="line"/>
    </contour>
    <contour>
      <point x="43" y="1049" type="line"/>
      <point x="43" y="804" type="line"/>
      <point x="150" y="804" type="line"/>
      <point x="150" y="1" type="line"/>
      <point x="1" y="-148" type="line"/>
      <point x="-119" y="-148" type="line"/>
      <point x="-119" y="1279" type="line"/>
      <point x="-80" y="1449" type="line"/>
      <point x="69" y="1598" type="line"/>
      <point x="150" y="1598" type="line"/>
      <point x="150" y="1156" type="line"/>
    </contour>
  </outline>
</glyph>
<glyph name="seven" format="2">
  <advance width="6"/>
  <unicode hex="0037"/>
  <outline>
    <contour>
      <point x="-50" y="-152" type="line"/>
      <point x="101" y="-1" type="line"/>
      <point x="152" y="1476" type="line"/>
      <point x="152" y="1476" type="line"/>
      <point x="152" y="1476" type="line"/>
      <point x="152" y="1602" type="line"/>
      <point x="26" y="1602" type="line"/>
      <point x="-125" y="1451" type="line"/>
      <point x="-125" y="1003" type="line"/>
      <point x="-106" y="1003" type="line"/>
      <point x="-27" y="1082" type="line"/>
      <point x="-69" y="-152" type="line"/>
    </contour>
    <contour>
      <point x="-23" y="1092" type="line"/>
      <point x="-108" y="1007" type="line"/>
      <point x="-121" y="1007" type="line"/>
      <point x="-121" y="1449" type="line"/>
      <point x="28" y="1598" type="line"/>
      <point x="148" y="1598" type="line"/>
      <point x="148" y="1476" type="line"/>
      <point x="97" y="1" type="line"/>
      <point x="-52" y="-148" type="line"/>
      <point x="-65" y="-148" type="line"/>
    </contour>
  </outline>
</glyph>
<glyph name="eight" format="2">
  <advance width="25"/>
  <unicode hex="0038"/>
  <outline>
    <contour>
      <point x="17" y="-152" type="line"/>
      <point x="168" y="-1" type="line"/>
      <point x="168" y="752" type="line"/>
      <point x="130" y="800" type="line"/>
      <point x="130" y="800" type="line"/>
      <point x="165" y="845" type="line"/>
      <point x="165" y="1602" type="line"/>
      <point x="31" y="1602" type="line"/>
      <point x="-120" y="1451" type="line"/>
      <point x="-120" y="695" type="line"/>
      <point x="-85" y="650" type="line"/>
      <point x="-85" y="650" type="line"/>
      <point x="-123" y="602" type="line"/>
      <point x="-123" y="-152" type="line"/>
    </contour>
    <contour>
      <point x="-81" y="648" type="line"/>
      <point x="-81" y="652" type="line"/>
      <point x="-116" y="697" type="line"/>
      <point x="-116" y="1449" type="line"/>
      <point x="33" y="1598" type="line"/>
      <point x="161" y="1598" type="line"/>
      <point x="161" y="847" type="line"/>
      <point x="126" y="802" type="line"/>
      <point x="126" y="798" type="line"/>
      <point x="164" y="750" type="line"/>
      <point x="164" y="1" type="line"/>
      <point x="15" y="-148" type="line"/>
      <point x="-119" y="-148" type="line"/>
      <point x="-119" y="600" type="line"/>
    </contour>
  </outline>
</glyph>
<glyph name="nine" format="2">
  <advance width="10"/>
  <unicode hex="0039"/>
  <outline>
    <contour>
      <point x="4" y="-152" type="line"/>
      <point x="155" y="-1" type="line"/>
      <point x="155" y="1602" type="line"/>
      <point x="28" y="1602" type="line"/>
      <point x="-123" y="1451" type="line"/>
      <point x="-123" y="642" type="line"/>
      <point x="-15" y="642" type="line"/>
      <point x="-15" y="212" type="line"/>
      <point x="-123" y="104" type="line"/>
      <point x="-123" y="-152" type="line"/>
    </contour>
    <contour>
      <point x="-11" y="210" type="line"/>
      <point x="-11" y="646" type="line"/>
      <point x="-119" y="646" type="line"/>
      <point x="-119" y="1449" type="line"/>
      <point x="30" y="1598" type="line"/>
      <point x="151" y="1598" type="line"/>
      <point x="151" y="1" type="line"/>
      <point x="2" y="-148" type="line"/>
      <point x="-119" y="-148" type="line"/>
      <point x="-119" y="102" type="line"/>
    </contour>
  </outline>
</glyph>
<glyph name="B" format="2">
  <advance width="17"/>
  <unicode hex="0042"/>
  <outline>
    <contour>
      <point x="-27" y="-152" type="line"/>
      <point x="124" y="-1" type="line"/>
      <point x="160" y="173" type="line"/>
      <point x="160" y="810" type="line"/>
      <point x="137" y="810" type="line"/>
      <point x="137" y="1602" type="line"/>
      <point x="33" y="1602" type="line"/>
      <point x="-118" y="1451" type="line"/>
      <point x="-118" y="-152" type="line"/>
    </contour>
    <contour>
      <point x="133" y="806" type="line"/>
      <point x="156" y="806" type="line"/>
      <point x="156" y="173" type="line"/>
      <point x="120" y="1" type="line"/>
      <point x="-29" y="-148" type="line"/>
      <point x="-114" y="-148" type="line"/>
      <point x="-114" y="1449" type="line"/>
      <point x="35" y="1598" type="line"/>
      <point x="133" y="1598" type="line"/>
    </contour>
  </outline>
</glyph>
<glyph name="C" format="2">
  <advance width="9"/>
  <unicode hex="0043"/>
  <outline>
    <contour>
      <point x="4" y="-152" type="line"/>
      <point x="155" y="-1" type="line"/>
      <point x="155" y="338" type="line"/>
      <point x="135" y="338" type="line"/>
      <point x="47" y="250" type="line"/>
      <point x="47" y="982" type="line"/>
      <point x="154" y="1089" type="line"/>
      <point x="154" y="1602" type="line"/>
      <point x="64" y="1602" type="line"/>
      <point x="-87" y="1451" type="line"/>
      <point x="-123" y="1276" type="line"/>
      <point x="-123" y="-152" type="line"/>
    </contour>
    <contour>
      <point x="43" y="984" type="line"/>
      <point x="43" y="240" type="line"/>
      <point x="137" y="334" type="line"/>
      <point x="151" y="334" type="line"/>
      <point x="151" y="1" type="line"/>
      <point x="2" y="-148" type="line"/>
      <point x="-119" y="-148" type="line"/>
      <point x="-119" y="1276" type="line"/>
      <point x="-83" y="1449" type="line"/>
      <point x="66" y="1598" type="line"/>
      <point x="150" y="1598" type="line"/>
      <point x="150" y="1091" type="line"/>
    </contour>
  </outline>
</glyph>
<glyph name="F" format="2">
  <advance width="5"/>
  <unicode hex="0046"/>
  <outline>
    <contour>
      <point x="-98" y="-152" type="line"/>
      <point x="53" y="-1" type="line"/>
      <point x="53" y="696" type="line"/>
      <point x="146" y="789" type="line"/>
      <point x="146" y="808" type="line"/>
      <point x="53" y="808" type="line"/>
      <point x="53" y="1057" type="line"/>
      <point x="150" y="1154" type="line"/>
      <point x="150" y="1602" type="line"/>
      <point x="33" y="1602" type="line"/>
      <point x="-118" y="1451" type="line"/>
      <point x="-118" y="-152" type="line"/>
    </contour>
    <contour>
      <point x="49" y="1059" type="line"/>
      <point x="49" y="804" type="line"/>
      <point x="142" y="804" type="line"/>
      <point x="142" y="791" type="line"/>
      <point x="49" y="698" type="line"/>
      <point x="49" y="1" type="line"/>
      <point x="-100" y="-148" type="line"/>
      <point x="-114" y="-148" type="line"/>
      <point x="-114" y="1449" type="line"/>
      <point x="35" y="1598" type="line"/>
      <point x="146" y="1598" type="line"/>
      <point x="146" y="1156" type="line"/>
    </contour>
  </outline>
</glyph>
<glyph name="K" format="2">
  <advance width="17"/>
  <unicode hex="004B"/>
  <outline>
    <contour>
      <point x="9" y="-152" type="line"/>
      <point x="160" y="-1" type="line"/>
      <point x="160" y="806" type="line"/>
      <point x="123" y="806" type="line"/>
      <point x="157" y="1602" type="line"/>
      <point x="138" y="1602" type="line"/>
      <point x="53" y="1517" type="line"/>
      <point x="53" y="1602" type="line"/>
      <point x="33" y="1602" type="line"/>
      <point x="-118" y="1451" type="line"/>
      <point x="-118" y="-152" type="line"/>
      <point x="-98" y="-152" type="line"/>
      <point x="-11" y="-65" type="line"/>
      <point x="-11" y="-152" type="line"/>
    </contour>
    <contour>
      <point x="49" y="1507" type="line"/>
      <point x="140" y="1598" type="line"/>
      <point x="153" y="1598" type="line"/>
      <point x="119" y="802" type="line"/>
      <point x="156" y="802" type="line"/>
      <point x="156" y="1" type="line"/>
      <point x="7" y="-148" type="line"/>
      <point x="-7" y="-148" type="line"/>
      <point x="-7" y="-55" type="line"/>
      <point x="-100" y="-148" type="line"/>
      <point x="-114" y="-148" type="line"/>
      <point x="-114" y="1449" type="line"/>
      <point x="35" y="1598" type="line"/>
      <point x="49" y="1598" type="line"/>
    </contour>
  </outline>
</glyph>
<glyph name="N" format="2">
  <advance width="44"/>
  <unicode hex="004E"/>
  <outline>
    <contour>
      <point x="31" y="-152" type="line"/>
      <point x="182" y="-1" type="line"/>
      <point x="182" y="1602" type="line"/>
      <point x="164" y="1602" type="line"/>
      <point x="78" y="1516" type="line"/>
      <point x="74" y="1602" type="line"/>
      <point x="33" y="1602" type="line"/>
      <point x="-118" y="1451" type="line"/>
      <point x="-118" y="-152" type="line"/>
      <point x="-100" y="-152" type="line"/>
      <point x="-17" y="-69" type="line"/>
      <point x="-13" y="-152" type="line"/>
    </contour>
    <contour>
      <point x="-13" y="-59" type="line"/>
      <point x="-102" y="-148" type="line"/>
      <point x="-114" y="-148" type="line"/>
      <point x="-114" y="1449" type="line"/>
      <point x="35" y="1598" type="line"/>
      <point x="70" y="1598" type="line"/>
      <point x="74" y="1506" type="line"/>
      <point x="166" y="1598" type="line"/>
      <point x="178" y="1598" type="line"/>
      <point x="178" y="1" type="line"/>
      <point x="29" y="-148" type="line"/>
      <point x="-9" y="-148" type="line"/>
    </contour>
  </outline>
</glyph>
<glyph name="T" format="2">
  <advance width="10"/>
  <unicode hex="0054"/>
  <outline>
    <contour>
      <point x="-51" y="-152" type="line"/>
      <point x="100" y="-1" type="line"/>
      <point x="100" y="1528" type="line"/>
      <point x="156" y="1584" type="line"/>
      <point x="156" y="1602" type="line"/>
      <point x="26" y="1602" type="line"/>
      <point x="-125" y="1451" type="line"/>
      <point x="-125" y="1433" type="line"/>
      <point x="-70" y="1433" type="line"/>
      <point x="-70" y="-152" type="line"/>
    </contour>
    <contour>
      <point x="-66" y="1437" type="line"/>
      <point x="-121" y="1437" type="line"/>
      <point x="-121" y="1449" type="line"/>
      <point x="28" y="1598" type="line"/>
      <point x="152" y="1598" type="line"/>
      <point x="152" y="1586" type="line"/>
      <point x="96" y="1530" type="line"/>
      <point x="96" y="1" type="line"/>
      <point x="-53" y="-148" type="line"/>
      <point x="-66" y="-148" type="line"/>
    </contour>
  </outline>
</glyph>
<glyph name="U" format="2">
  <advance width="17"/>
  <unicode hex="0055"/>
  <outline>
    <contour>
      <point x="4" y="-152" type="line"/>
      <point x="155" y="-1" type="line"/>
      <point x="155" y="1602" type="line"/>
      <point x="135" y="1602" type="line"/>
      <point x="47" y="1514" type="line"/>
      <point x="47" y="1602" type="line"/>
      <point x="28" y="1602" type="line"/>
      <point x="-123" y="1451" type="line"/>
      <point x="-123" y="-152" type="line"/>
    </contour>
    <contour>
      <point x="43" y="1504" type="line"/>
      <point x="137" y="1598" type="line"/>
      <point x="151" y="1598" type="line"/>
      <point x="151" y="1" type="line"/>
      <point x="2" y="-148" type="line"/>
      <point x="-119" y="-148" type="line"/>
      <point x="-119" y="1449" type="line"/>
      <point x="30" y="1598" type="line"/>
      <point x="43" y="1598" type="line"/>
    </contour>
  </outline>
</glyph>
<glyph name="X" format="2">
  <advance width="14"/>
  <unicode hex="0058"/>
  <outline>
    <contour>
      <point x="6" y="-152" type="line"/>
      <point x="157" y="-1" type="line"/>
      <point x="157" y="752" type="line"/>
      <point x="135" y="780" type="line"/>
      <point x="153" y="798" type="line"/>
      <point x="153" y="1602" type="line"/>
      <point x="134" y="1602" type="line"/>
      <point x="51" y="1519" type="line"/>
      <point x="51" y="1602" type="line"/>
      <point x="32" y="1602" type="line"/>
      <point x="-119" y="1451" type="line"/>
      <point x="-119" y="695" type="line"/>
      <point x="-102" y="673" type="line"/>
      <point x="-123" y="652" type="line"/>
      <point x="-123" y="-152" type="line"/>
      <point x="-104" y="-152" type="line"/>
      <point x="-13" y="-61" type="line"/>
      <point x="-13" y="-152" type="line"/>
    </contour>
    <contour>
      <point x="-9" y="-51" type="line"/>
      <point x="-106" y="-148" type="line"/>
      <point x="-119" y="-148" type="line"/>
      <point x="-119" y="650" type="line"/>
      <point x="-96" y="673" type="line"/>
      <point x="-115" y="697" type="line"/>
      <point x="-115" y="1449" type="line"/>
      <point x="34" y="1598" type="line"/>
      <point x="47" y="1598" type="line"/>
      <point x="47" y="1509" type="line"/>
      <point x="136" y="1598" type="line"/>
      <point x="149" y="1598" type="line"/>
      <point x="149" y="800" type="line"/>
      <point x="129" y="780" type="line"/>
      <point x="153" y="750" type="line"/>
      <point x="153" y="1" type="line"/>
      <point x="4" y="-148" type="line"/>
      <point x="-9" y="-148" type="line"/>
    </contour>
  </outline>
</glyph>
<glyph name="Y" format="2">
  <advance width="25"/>
  <unicode hex="0059"/>
  <outline>
    <contour>
      <point x="12" y="-152" type="line"/>
      <point x="163" y="-1" type="line"/>
      <point x="163" y="1602" type="line"/>
      <point x="143" y="1602" type="line"/>
      <point x="56" y="1515" type="line"/>
      <point x="56" y="1602" type="line"/>
      <point x="37" y="1602" type="line"/>
      <point x="-114" y="1451" type="line"/>
      <point x="-114" y="640" type="line"/>
      <point x="-8" y="640" type="line"/>
      <point x="-8" y="312" type="line"/>
      <point x="-118" y="202" type="line"/>
      <point x="-118" y="-152" type="line"/>
    </contour>
    <contour>
      <point x="-4" y="310" type="line"/>
      <point x="-4" y="644" type="line"/>
      <point x="-110" y="644" type="line"/>
      <point x="-110" y="1449" type="line"/>
      <point x="39" y="1598" type="line"/>
      <point x="52" y="1598" type="line"/>
      <point x="52" y="1505" type="line"/>
      <point x="145" y="1598" type="line"/>
      <point x="159" y="1598" type="line"/>
      <point x="159" y="1" type="line"/>
      <point x="10" y="-148" type="line"/>
      <point x="-114" y="-148" type="line"/>
      <point x="-114" y="200" type="line"/>
    </contour>
  </outline>
</glyph>
<glyph name="C.wide" format="2">
  <advance width="8"/>
  <outline>
    <contour>
      <point x="153" y="-1" type="line"/>
      <point x="153" y="17" type="line"/>
      <point x="44" y="17" type="line"/>
      <point x="44" y="1286" type="line"/>
      <point x="77" y="1509" type="line"/>
      <point x="152" y="1584" type="line"/>
      <point x="152" y="1602" type="line"/>
      <point x="71" y="1602" type="line"/>
      <point x="-80" y="1451" type="line"/>
      <point x="-126" y="1137" type="line"/>
      <point x="-126" y="-152" type="line"/>
      <point x="2" y="-152" type="line"/>
    </contour>
    <contour>
      <point x="40" y="1286" type="line"/>
      <point x="40" y="13" type="line"/>
      <point x="149" y="13" type="line"/>
      <point x="149" y="1" type="line"/>
      <point x="0" y="-148" type="line"/>
      <point x="-122" y="-148" type="line"/>
      <point x="-122" y="1137" type="line"/>
      <point x="-76" y="1449" type="line"/>
      <point x="73" y="1598" type="line"/>
      <point x="148" y="1598" type="line"/>
      <point x="148" y="1586" type="line"/>
      <point x="73" y="1511" type="line"/>
    </contour>
  </outline>
</glyph>
<glyph name="F.wide" format="2">
  <advance width="-12"/>
  <outline>
    <contour>
      <point x="-98" y="-152" type="line"/>
      <point x="53" y="-1" type="line"/>
      <point x="53" y="707" type="line"/>
      <point x="130" y="784" type="line"/>
      <point x="130" y="802" type="line"/>
      <point x="53" y="802" type="line"/>
      <point x="53" y="1504" type="line"/>
      <point x="133" y="1584" type="line"/>
      <point x="133" y="1602" type="line"/>
      <point x="33" y="1602" type="line"/>
      <point x="-118" y="1451" type="line"/>
      <point x="-118" y="-152" type="line"/>
    </contour>
    <contour>
      <point x="49" y="1506" type="line"/>
      <point x="49" y="798" type="line"/>
      <point x="126" y="798" type="line"/>
      <point x="126" y="786" type="line"/>
      <point x="49" y="709" type="line"/>
      <point x="49" y="1" type="line"/>
      <point x="-100" y="-148" type="line"/>
      <point x="-114" y="-148" type="line"/>
      <point x="-114" y="1449" type="line"/>
      <point x="35" y="1598" type="line"/>
      <point x="129" y="1598" type="line"/>
      <point x="129" y="1586" type="line"/>
    </contour>
  </outline>
</glyph>
<glyph name="I.narrow" format="2">
  <advance width="-85"/>
  <outline>
    <contour>
      <point x="-118" y="1449" type="line"/>
      <point x="-118" y="-150" type="line"/>
      <point x="-98" y="-150" type="line"/>
      <point x="53" y="1" type="line"/>
      <point x="53" y="1600" type="line"/>
      <point x="33" y="1600" type="line"/>
    </contour>
    <contour>
      <point x="-114" y="-146" type="line"/>
      <point x="-114" y="1447" type="line"/>
      <point x="35" y="1596" type="line"/>
      <point x="49" y="1596" type="line"/>
      <point x="49" y="3" type="line"/>
      <point x="-100" y="-146" type="line"/>
    </contour>
  </outline>
</glyph>
<glyph name="L.wide" format="2">
  <advance width="-20"/>
  <outline>
    <contour>
      <point x="126" y="-1" type="line"/>
      <point x="126" y="17" type="line"/>
      <point x="50" y="17" type="line"/>
      <point x="50" y="1602" type="line"/>
      <point x="31" y="1602" type="line"/>
      <point x="-120" y="1451" type="line"/>
      <point x="-120" y="-152" type="line"/>
      <point x="-25" y="-152" type="line"/>
    </contour>
    <contour>
      <point x="46" y="13" type="line"/>
      <point x="122" y="13" type="line"/>
      <point x="122" y="1" type="line"/>
      <point x="-27" y="-148" type="line"/>
      <point x="-116" y="-148" type="line"/>
      <point x="-116" y="1449" type="line"/>
      <point x="33" y="1598" type="line"/>
      <point x="46" y="1598" type="line"/>
    </contour>
  </outline>
</glyph>
<glyph name="N.wide" format="2">
  <advance width="51"/>
  <outline>
    <contour>
      <point x="38" y="-152" type="line"/>
      <point x="189" y="-1" type="line"/>
      <point x="189" y="1602" type="line"/>
      <point x="169" y="1602" type="line"/>
      <point x="74" y="1507" type="line"/>
      <point x="68" y="1602" type="line"/>
      <point x="33" y="1602" type="line"/>
      <point x="-118" y="1451" type="line"/>
      <point x="-118" y="-152" type="line"/>
      <point x="-99" y="-152" type="line"/>
      <point x="-5" y="-58" type="line"/>
      <point x="1" y="-152" type="line"/>
    </contour>
    <contour>
      <point x="-1" y="-48" type="line"/>
      <point x="-101" y="-148" type="line"/>
      <point x="-114" y="-148" type="line"/>
      <point x="-114" y="1449" type="line"/>
      <point x="35" y="1598" type="line"/>
      <point x="64" y="1598" type="line"/>
      <point x="70" y="1497" type="line"/>
      <point x="171" y="1598" type="line"/>
      <point x="185" y="1598" type="line"/>
      <point x="185" y="1" type="line"/>
      <point x="36" y="-148" type="line"/>
      <point x="5" y="-148" type="line"/>
    </contour>
  </outline>
</glyph>
<glyph name="P.wide" format="2">
  <advance width="12"/>
  <outline>
    <contour>
      <point x="-99" y="-152" type="line"/>
      <point x="52" y="-1" type="line"/>
      <point x="52" y="637" type="line"/>
      <point x="157" y="742" type="line"/>
      <point x="157" y="1602" type="line"/>
      <point x="33" y="1602" type="line"/>
      <point x="-118" y="1451" type="line"/>
      <point x="-118" y="-152" type="line"/>
    </contour>
    <contour>
      <point x="48" y="639" type="line"/>
      <point x="48" y="1" type="line"/>
      <point x="-101" y="-148" type="line"/>
      <point x="-114" y="-148" type="line"/>
      <point x="-114" y="1449" type="line"/>
      <point x="35" y="1598" type="line"/>
      <point x="153" y="1598" type="line"/>
      <point x="153" y="744" type="line"/>
    </contour>
  </outline>
</glyph>
<glyph name="R.wide" format="2">
  <advance width="29"/>
  <outline>
    <contour>
      <point x="-4" y="-152" type="line"/>
      <point x="147" y="-1" type="line"/>
      <point x="108" y="741" type="line"/>
      <point x="156" y="789" type="line"/>
      <point x="156" y="1602" type="line"/>
      <point x="33" y="1602" type="line"/>
      <point x="-118" y="1451" type="line"/>
      <point x="-118" y="-152" type="line"/>
      <point x="-98" y="-152" type="line"/>
      <point x="-28" y="-82" type="line"/>
      <point x="-24" y="-152" type="line"/>
    </contour>
    <contour>
      <point x="104" y="743" type="line"/>
      <point x="143" y="1" type="line"/>
      <point x="-6" y="-148" type="line"/>
      <point x="-20" y="-148" type="line"/>
      <point x="-24" y="-72" type="line"/>
      <point x="-100" y="-148" type="line"/>
      <point x="-114" y="-148" type="line"/>
      <point x="-114" y="1449" type="line"/>
      <point x="35" y="1598" type="line"/>
      <point x="152" y="1598" type="line"/>
      <point x="152" y="791" type="line"/>
    </contour>
  </outline>
</glyph>
<glyph name="S.wide" format="2">
  <advance width="-3"/>
  <outline>
    <contour>
      <point x="-43" y="-152" type="line"/>
      <point x="108" y="-1" type="line"/>
      <point x="143" y="164" type="line"/>
      <point x="143" y="810" type="line"/>
      <point x="45" y="810" type="line"/>
      <point x="45" y="1426" type="line"/>
      <point x="63" y="1508" type="line"/>
      <point x="139" y="1584" type="line"/>
      <point x="139" y="1602" type="line"/>
      <point x="62" y="1602" type="line"/>
      <point x="-89" y="1451" type="line"/>
      <point x="-125" y="1277" type="line"/>
      <point x="-125" y="640" type="line"/>
      <point x="-28" y="640" type="line"/>
      <point x="-28" y="15" type="line"/>
      <point x="-43" y="-54" type="line"/>
      <point x="-123" y="-134" type="line"/>
      <point x="-123" y="-152" type="line"/>
    </contour>
    <contour>
      <point x="-39" y="-56" type="line"/>
      <point x="-24" y="15" type="line"/>
      <point x="-24" y="644" type="line"/>
      <point x="-121" y="644" type="line"/>
      <point x="-121" y="1277" type="line"/>
      <point x="-85" y="1449" type="line"/>
      <point x="64" y="1598" type="line"/>
      <point x="135" y="1598" type="line"/>
      <point x="135" y="1586" type="line"/>
      <point x="59" y="1510" type="line"/>
      <point x="41" y="1426" type="line"/>
      <point x="41" y="806" type="line"/>
      <point x="139" y="806" type="line"/>
      <point x="139" y="164" type="line"/>
      <point x="104" y="1" type="line"/>
      <point x="-45" y="-148" type="line"/>
      <point x="-119" y="-148" type="line"/>
      <point x="-119" y="-136" type="line"/>
    </contour>
  </outline>
</glyph>
